<svg width="65" height="72" viewBox="0 0 65 72" xmlns="http://www.w3.org/2000/svg"><g id="views" fill="none" fill-rule="evenodd"><g id="places" transform="translate(-81 -1508)" fill="#439FD8"><g id="Section-1" transform="translate(52 823)"><g id="Group" transform="translate(29 682)"><path d="M48.674 10.627a32.258 32.258 0 0 0-16.267-4.372C14.509 6.255 0 20.764 0 38.662c0 .884.035 1.76.105 2.627h6.733a26.004 26.004 0 0 1-.133-2.627c0-14.195 11.507-25.702 25.702-25.702 4.14 0 8.052.979 11.516 2.718l-7.223 7.68c-.37.392-.234.723.315.723l19.85.014c.539 0 .951-.44.897-.985l-1.89-19.046c-.054-.547-.402-.662-.777-.263l-6.42 6.826zM17.141 67.255a32.264 32.264 0 0 0 15.266 3.814c17.898 0 32.407-14.51 32.407-32.407 0-.6-.016-1.197-.049-1.789l-6.726-.117c.047.629.07 1.265.07 1.906 0 14.195-11.507 25.702-25.702 25.702-3.706 0-7.23-.785-10.412-2.197l7.822-8.199c.38-.398.239-.72-.316-.72l-20.666.013a.894.894 0 0 0-.912.987l1.823 19.675c.05.535.4.664.78.266l6.615-6.934z" id="ic_med_refresh"/></g></g></g></g></svg>