<svg width="70" height="63" viewBox="0 0 70 63" xmlns="http://www.w3.org/2000/svg"><g id="views" fill="none" fill-rule="evenodd"><g id="Artboard-3" transform="translate(-59 -867)"><g id="section-2" transform="translate(33 72)"><g id="Group-3" transform="translate(0 760)"><g id="ic_med_users" transform="translate(26 35)"><path d="M21.66 30.297c0 4.738-3.783 8.58-8.449 8.58h-.17c-4.666 0-8.449-3.842-8.449-8.58V24.18c0-4.739 3.783-8.58 8.449-8.58h.17c4.666 0 8.449 3.841 8.449 8.58v6.116z" id="Fill-1" fill="#6EE5BD"/><path d="M26.252 62.222H5.25c-2.9 0-5.25-2.387-5.25-5.331v-8.684c0-2.944 2.35-5.33 5.25-5.33h12.092c4.92 0 8.91 4.05 8.91 9.047v10.298z" id="Fill-3" fill="#6EE5BD"/><path d="M65.408 30.297c0 4.738-3.783 8.58-8.449 8.58h-.17c-4.666 0-8.449-3.842-8.449-8.58V24.18c0-4.739 3.783-8.58 8.449-8.58h.17c4.666 0 8.449 3.841 8.449 8.58v6.116z" id="Fill-5" fill="#AFD479"/><path d="M64.75 62.222H43.748V51.924c0-4.997 3.99-9.048 8.91-9.048H64.75c2.9 0 5.25 2.387 5.25 5.331v8.684c0 2.944-2.35 5.331-5.25 5.331" id="Fill-7" fill="#AFD479"/><g id="Group-11" transform="translate(23.333)" fill="#4BA5DC"><path d="M23.042 19.592c0 6.317-5.043 11.439-11.263 11.439h-.228C5.331 31.03.288 25.909.288 19.592v-8.154C.288 5.121 5.33 0 11.55 0h.228c6.22 0 11.263 5.121 11.263 11.438v8.154z" id="Fill-9"/></g><path d="M52.498 62.222H17.499V47.093c0-5.889 4.701-10.662 10.5-10.662h13.999c5.799 0 10.5 4.773 10.5 10.662v15.13z" id="Fill-12" fill="#4BA5DC"/></g></g></g></g></g></svg>