<svg width="70" height="67" viewBox="0 0 70 67" xmlns="http://www.w3.org/2000/svg" xmlns:xlink="http://www.w3.org/1999/xlink"><defs><path id="path-1" d="M22.154 0H.128v36.872h22.026V0z"/><path id="path-3" d="M.314 16.21h10.598V.277H.314z"/></defs><g id="views" fill="none" fill-rule="evenodd"><g id="enterprise" transform="translate(-935 -812)"><g id="Section-1" transform="translate(104 812)"><g id="Group" transform="translate(426)"><g id="ic_med_non_technical" transform="translate(405)"><path id="Fill-1" fill="#EA5F5F" d="M0 47.083l2.971 7.141 66.786-27.79-2.971-7.142z"/><path id="Fill-2" fill="#D8DCE0" d="M54.24 37.285h.042v-.017z"/><g id="Group-19" transform="translate(6.632)"><path d="M41.01 18.64h7.37c.687 0 1.244-.556 1.244-1.242V12.34c0-3.563 1.615-5.309 5.194-5.309h5.684c.24 0 .427-.204.415-.444C60.73 2.91 57.355 0 49.624 0h-9.4c-.661 0-1.198.536-1.198 1.197v.46c0 .66-.536 1.197-1.198 1.197h-.635c-.664 0-1.156-.554-1.164-1.217A1.658 1.658 0 0 0 34.369 0h-6.221a.414.414 0 0 0-.415.414v13.67c0 .228.186.414.415.414h6.265c.92 0 1.597-.764 1.616-1.682a1.198 1.198 0 0 1 1.199-1.172h.6c.662 0 1.198.536 1.198 1.197v4.603c0 .66.537 1.196 1.198 1.196h.787v3.892l4.082-1.699h-4.082V18.64z" id="Fill-3" fill="#D8DCE0"/><g id="Group-7"><mask id="mask-2" fill="#fff"><use xlink:href="#path-1"/></mask><path d="M8.65 35.998l.417-14.14c.672.137 1.365.211 2.074.211.709 0 1.4-.074 2.072-.21l.355 12.092 2.05-.852-.35-11.884c4.037-1.738 6.886-5.945 6.886-10.863 0-3.81-1.71-8.025-4.358-10.165-.545-.44-1.357-.057-1.357.643v4.154c0 3.113-2.372 5.636-5.298 5.636S5.843 8.097 5.843 4.984V.83c0-.7-.813-1.082-1.357-.643C1.838 2.327.128 6.541.128 10.352c0 4.917 2.847 9.123 6.882 10.862l-.46 15.658 2.1-.874z" id="Fill-5" fill="#D8DCE0" mask="url(#mask-2)"/></g><g id="Group-10" transform="translate(5.526 50.105)"><mask id="mask-4" fill="#fff"><use xlink:href="#path-3"/></mask><path d="M2.603 10.62a3.01 3.01 0 0 1 3.012-3.008 3.01 3.01 0 0 1 3.012 3.008 3.01 3.01 0 0 1-3.012 3.008 3.01 3.01 0 0 1-3.012-3.008zm3.01 5.59c2.926.001 5.3-2.368 5.3-5.291L10.6.276l-2.05.853.137 4.673c.01.319-.331.529-.61.374a5.059 5.059 0 0 0-2.462-.635c-.894 0-1.734.231-2.465.637a.412.412 0 0 1-.61-.375l.064-2.2-2.1.874-.19 6.442a5.296 5.296 0 0 0 5.298 5.292z" id="Fill-8" fill="#D8DCE0" mask="url(#mask-4)"/></g><path d="M11.141 22.07c-.71 0-1.403-.075-2.075-.211l-.415 14.139 4.917-2.047-.355-12.092c-.671.136-1.364.21-2.072.21" id="Fill-11" fill="#F0F1F2"/><path d="M8.677 56.283a5.06 5.06 0 0 1 2.464-.637c.892 0 1.732.23 2.462.635.279.156.62-.055.61-.374l-.137-4.673-5.945 2.474-.065 2.2c-.01.32.332.53.61.375" id="Fill-13" fill="#F0F1F2"/><path d="M44.324 66.277c2.927 0 5.3-2.37 5.3-5.293V38.109a.829.829 0 0 0-.83-.828H47.61l-8.583 3.571v20.134a5.294 5.294 0 0 0 5.298 5.29" id="Fill-15" fill="#56C4E9"/><path id="Fill-17" fill="#B7B6BA" d="M41.01 18.64v2.193h4.083l2.547-1.06V18.64z"/></g></g></g></g></g></g></svg>