<svg width="70" height="55" viewBox="0 0 70 55" xmlns="http://www.w3.org/2000/svg" xmlns:xlink="http://www.w3.org/1999/xlink"><defs><path id="path-1" d="M.015 54.144h69.598V0H0v54.144h69.613V20.837H.015v33.307z"/><path id="path-3" d="M69.613 0H.015v33.306h69.598z"/><path id="path-5" d="M0 0v30.687h69.613V0H0z"/></defs><g id="views" fill="none" fill-rule="evenodd"><g id="schools" transform="translate(-104 -953)"><g id="Section-1" transform="translate(75 841)"><g id="Group" transform="translate(29 99)"><g id="ic_med_inbox" transform="translate(0 13)"><path d="M64.958 54.144H4.64a4.64 4.64 0 0 1-4.64-4.641V4.64A4.64 4.64 0 0 1 4.64 0h60.317a4.641 4.641 0 0 1 4.64 4.64v44.863a4.641 4.641 0 0 1-4.64 4.64" id="Fill-1" fill="#D8D0DD"/><g id="Group-5"><mask id="mask-2" fill="#fff"><use xlink:href="#path-1"/></mask><path d="M37.826 21.97l31.787 27.533a4.64 4.64 0 0 1-4.64 4.64H4.654a4.64 4.64 0 0 1-4.64-4.64l31.734-27.53a4.64 4.64 0 0 1 6.078-.003" id="Fill-3" fill="#CFC7D5" mask="url(#mask-2)"/></g><g id="Group-8"><mask id="mask-4" fill="#fff"><use xlink:href="#path-3"/></mask><path d="M31.802 32.174L.015 4.64A4.64 4.64 0 0 1 4.655 0h60.318a4.64 4.64 0 0 1 4.64 4.64L37.88 32.172a4.64 4.64 0 0 1-6.078.003" id="Fill-6" fill="#ECE7EE" mask="url(#mask-4)"/></g><g id="Group-11" transform="translate(0 4.64)"><mask id="mask-6" fill="#fff"><use xlink:href="#path-5"/></mask><path d="M37.88 27.53a4.64 4.64 0 0 1-6.078.003L0 0l.015.474 31.787 29.08a4.64 4.64 0 0 0 6.078-.002L69.613.474V0L37.88 27.53z" id="Fill-9" fill="#C5BFCB" mask="url(#mask-6)"/></g></g></g></g></g></g></svg>