<svg width="70" height="63" viewBox="0 0 70 63" xmlns="http://www.w3.org/2000/svg" xmlns:xlink="http://www.w3.org/1999/xlink"><defs><path id="path-1" d="M8.276 62.611H0V.386h8.276V62.61z"/></defs><g id="views" fill="none" fill-rule="evenodd"><g id="Events" transform="translate(-126 -1370)"><g id="Section-1" transform="translate(97 841)"><g id="Group" transform="translate(29 518)"><g id="ic_med_graph" transform="translate(0 11)"><path d="M12.018 62.612h17.308V41.565a.484.484 0 0 0-.492-.476H12.51a.484.484 0 0 0-.492.476v21.047z" id="Fill-1" fill="#54C5EB"/><path d="M69.452 11.12H53.205c-.293 0-.53.411-.53.918v50.574h17.308V12.038c0-.507-.238-.918-.531-.918" id="Fill-3" fill="#A3D078"/><path d="M49.182 31.537H32.938c-.294 0-.533.285-.533.637v30.438h17.31V32.174c0-.352-.239-.637-.533-.637" id="Fill-5" fill="#F16667"/><path d="M2.623 45.111h5.264a.389.389 0 0 0 .389-.389v-7.265a.389.389 0 0 0-.39-.39H2.624v8.044z" id="Fill-7" fill="#D9DCE0"/><path d="M2.623 25.932h5.264a.389.389 0 0 0 .389-.389v-7.265a.389.389 0 0 0-.39-.389H2.624v8.043z" id="Fill-9" fill="#D9DCE0"/><g id="Group-13" transform="translate(0 .003)"><mask id="mask-2" fill="#fff"><use xlink:href="#path-1"/></mask><path d="M3.889 8.43h3.95a.389.389 0 0 0 .389-.39V.778A.388.388 0 0 0 7.839.39L.39.386A.389.389 0 0 0 0 .775v61.447c0 .215.174.39.389.39h7.498a.389.389 0 0 0 .389-.39v-7.268a.389.389 0 0 0-.389-.39H3.89V8.43z" id="Fill-11" fill="#D9DCE0" mask="url(#mask-2)"/></g></g></g></g></g></g></svg>