<svg width="70" height="71" viewBox="0 0 70 71" xmlns="http://www.w3.org/2000/svg" xmlns:xlink="http://www.w3.org/1999/xlink"><defs><path id="path-1" d="M5.405 0H.39v15.387h5.014V0z"/><path id="path-3" d="M5.39 0H.379v15.387H5.39V0z"/><path id="path-5" d="M0 70.787h70V0H0z"/></defs><g id="views" fill="none" fill-rule="evenodd"><g id="schools" transform="translate(-104 -1366)"><g id="Section-1" transform="translate(75 841)"><g id="Group" transform="translate(29 518)"><g id="ic_med_my_schedule" transform="translate(0 7)"><path d="M41.024 63.375v.957H25.819v-15.3h15.205v2.147a17.532 17.532 0 0 1 4.348-6.553v-15.27h15.204v10.713a17.468 17.468 0 0 1 6.266 2.436V9.16c0-2.76-2.244-4.997-5.013-4.997H5.013C2.244 4.164 0 6.4 0 9.16V65.79c0 2.76 2.244 4.996 5.013 4.996h41.325a17.565 17.565 0 0 1-5.314-7.411z" id="Fill-1" fill="#E3E1D0"/><path d="M61.829 4.164H5.013C2.244 4.164 0 6.4 0 9.16V22.9h66.842V9.162c0-2.76-2.244-4.997-5.013-4.997" id="Fill-3" fill="#F16667"/><path d="M21.31 12.994c0-2.53-2.058-4.58-4.595-4.58a4.588 4.588 0 0 0-4.596 4.58c0 2.53 2.058 4.58 4.596 4.58a4.588 4.588 0 0 0 4.595-4.58" id="Fill-5" fill="#C45F5F"/><g id="Group-9" transform="translate(13.764)"><mask id="mask-2" fill="#fff"><use xlink:href="#path-1"/></mask><path d="M5.405 2.562C5.405 1.147 4.282 0 2.898 0 1.514 0 .39 1.147.39 2.562v10.263c0 1.415 1.123 2.562 2.507 2.562 1.384 0 2.507-1.147 2.507-2.562V2.562z" id="Fill-7" fill="#DADDE1" mask="url(#mask-2)"/></g><path d="M54.723 12.994c0-2.53-2.057-4.58-4.595-4.58a4.588 4.588 0 0 0-4.596 4.58c0 2.53 2.058 4.58 4.596 4.58a4.588 4.588 0 0 0 4.595-4.58" id="Fill-10" fill="#C45F5F"/><g id="Group-14" transform="translate(47.191)"><mask id="mask-4" fill="#fff"><use xlink:href="#path-3"/></mask><path d="M5.39 2.562C5.39 1.147 4.269 0 2.885 0 1.5 0 .378 1.147.378 2.562v10.263c0 1.415 1.122 2.562 2.506 2.562 1.384 0 2.507-1.147 2.507-2.562V2.562z" id="Fill-12" fill="#DADDE1" mask="url(#mask-4)"/></g><mask id="mask-6" fill="#fff"><use xlink:href="#path-5"/></mask><path id="Fill-15" fill="#F8F6EB" mask="url(#mask-6)" d="M6.267 44.656h15.205v-15.3H6.267z"/><path id="Fill-17" fill="#F8F6EB" mask="url(#mask-6)" d="M25.819 44.656h15.205v-15.3H25.819z"/><path id="Fill-18" fill="#F8F6EB" mask="url(#mask-6)" d="M6.267 64.332h15.205v-15.3H6.267z"/><path id="Fill-19" fill="#C45F5F" mask="url(#mask-6)" d="M0 20.822h66.842v2.082H0z"/><path d="M45.371 29.356v15.27a17.51 17.51 0 0 1 15.205-4.557V29.356H45.371z" id="Fill-20" fill="#F8F6EB" mask="url(#mask-6)"/><path d="M25.819 49.032v15.3h15.204v-.957a17.354 17.354 0 0 1-1.102-6.098c0-2.144.391-4.198 1.102-6.098v-2.147H25.82z" id="Fill-21" fill="#F8F6EB" mask="url(#mask-6)"/><path d="M70 57.277c0-6.899-5.611-12.492-12.533-12.492-6.921 0-12.533 5.593-12.533 12.492 0 6.899 5.612 12.492 12.533 12.492C64.39 69.769 70 64.176 70 57.277" id="Fill-22" fill="#AFD479" mask="url(#mask-6)"/><path d="M64.039 52.017a1.836 1.836 0 0 0-1.306-.54c-.495 0-.96.193-1.31.542l-6.2 6.18-1.714-1.708a1.842 1.842 0 0 0-1.307-.54 1.841 1.841 0 0 0-1.305 3.146l1.713 1.706-.02.02 1.307 1.302c.348.347.811.539 1.305.539.494 0 .959-.192 1.31-.541l7.524-7.5a1.84 1.84 0 0 0 .003-2.606" id="Fill-23" fill="#FFF" mask="url(#mask-6)"/></g></g></g></g></g></svg>