<svg width="63" height="70" viewBox="0 0 63 70" xmlns="http://www.w3.org/2000/svg" xmlns:xlink="http://www.w3.org/1999/xlink"><defs><path id="path-1" d="M0 70h62.222V0H0z"/></defs><g id="views" fill="none" fill-rule="evenodd"><g id="schools" transform="translate(-108 -1099)"><g id="Section-1" transform="translate(75 841)"><g id="Group" transform="translate(0 228)"><g id="ic_med_feedback" transform="translate(33 30)"><g id="Group-3"><mask id="mask-2" fill="#fff"><use xlink:href="#path-1"/></mask><path d="M31.111 0C13.93 0 0 13.929 0 31.11c0 10.691 5.394 20.12 13.607 25.72v12.295c0 .75.886 1.151 1.452.657l8.935-8.388a31.17 31.17 0 0 0 7.117.827c17.182 0 31.111-13.928 31.111-31.11S48.293 0 31.112 0" id="Fill-1" fill="#4BA5DC" mask="url(#mask-2)"/></g><path d="M18.184 22.448c0-1.294.345-2.528 1.034-3.7.688-1.173 1.607-2.206 2.755-3.098 1.147-.893 2.463-1.602 3.946-2.127a13.868 13.868 0 0 1 4.662-.787c1.696 0 3.346.202 4.954.604 1.607.403 3.046 1.023 4.318 1.863a9.49 9.49 0 0 1 3.046 3.255c.759 1.33 1.139 2.923 1.139 4.778 0 1.155-.195 2.188-.583 3.097a9.786 9.786 0 0 1-1.51 2.468 14.96 14.96 0 0 1-2.066 2.02 49.556 49.556 0 0 1-2.198 1.68l-1.934 1.392c-.583.42-1.016.84-1.298 1.26a5.166 5.166 0 0 0-.715 1.47 7.15 7.15 0 0 1-.61 1.444 3.02 3.02 0 0 1-1.032 1.076c-.443.28-1.105.42-1.987.42-1.131 0-1.979-.376-2.543-1.129-.566-.752-.848-1.549-.848-2.389 0-1.05.23-1.968.689-2.756a10.065 10.065 0 0 1 1.722-2.178 20.837 20.837 0 0 1 2.225-1.864 28.924 28.924 0 0 0 2.225-1.785 10.736 10.736 0 0 0 1.721-1.916c.459-.665.69-1.435.69-2.31 0-1.435-.451-2.546-1.352-3.334-.9-.787-2.145-1.181-3.734-1.181-1.131 0-2.023.175-2.676.525-.654.35-1.184.78-1.59 1.286a6.806 6.806 0 0 0-.98 1.654 11.18 11.18 0 0 1-.847 1.653 4.62 4.62 0 0 1-1.192 1.287c-.477.35-1.14.525-1.987.525-.919 0-1.722-.27-2.41-.814-.689-.542-1.034-1.339-1.034-2.389" id="Fill-4" fill="#FFF"/><path d="M34.381 46.675c0 2.135-1.746 3.865-3.9 3.865s-3.9-1.73-3.9-3.865c0-2.135 1.746-3.865 3.9-3.865s3.9 1.73 3.9 3.865" id="Fill-6" fill="#FFF"/></g></g></g></g></g></svg>