<svg width="70" height="70" viewBox="0 0 70 70" xmlns="http://www.w3.org/2000/svg"><g id="views" fill="none" fill-rule="evenodd"><g id="schools" transform="translate(-104 -1237)"><g id="Section-1" transform="translate(75 841)"><g id="Group" transform="translate(29 391)"><g id="ic_med_chat" transform="translate(0 5)"><path d="M18.383 19.79H64.75c2.899 0 5.249 2.345 5.249 5.239v24.45c0 2.893-2.35 5.239-5.25 5.239H18.384c-2.9 0-5.25-2.346-5.25-5.24v-24.45c0-2.893 2.35-5.239 5.25-5.239" id="Fill-1" fill="#AFD479"/><path d="M56.88 69.072V53.789H39.383L55.43 69.77c.565.524 1.45.099 1.45-.697" id="Fill-3" fill="#AFD479"/><path d="M18.383 19.79c-2.9 0-5.25 2.345-5.25 5.239v12.08h.965l-.964.02v12.35c0 1.372.533 2.618 1.4 3.553.011-.01.025-.014.036-.025L31.502 37.11h21.43c3.381 0 6.123-2.737 6.123-6.113V19.79H18.383z" id="Fill-5" fill="#A3D078"/><path d="M51.617 0H5.25C2.35 0 0 2.346 0 5.24v24.449c0 2.894 2.35 5.24 5.25 5.24h46.367c2.9 0 5.25-2.346 5.25-5.24V5.239c0-2.893-2.35-5.239-5.25-5.239" id="Fill-7" fill="#4BA5DC"/><path d="M13.12 49.283V34h17.497L14.57 49.98c-.565.524-1.45.098-1.45-.697" id="Fill-9" fill="#4BA5DC"/></g></g></g></g></g></svg>