<svg width="71" height="55" viewBox="0 0 71 55" xmlns="http://www.w3.org/2000/svg" xmlns:xlink="http://www.w3.org/1999/xlink"><defs><path id="path-1" d="M.23 45.889h46.207V.226H.23z"/></defs><g id="views" fill="none" fill-rule="evenodd"><g id="schools" transform="translate(-101 -1497)"><g id="Section-1" transform="translate(75 841)"><g id="Group" transform="translate(26 652)"><g id="ic_med_tour" transform="translate(.814 4)"><g id="Group-3" transform="translate(11.667 8.556)"><mask id="mask-2" fill="#fff"><use xlink:href="#path-1"/></mask><path d="M46.437 23.057C46.437 10.448 36.093.226 23.333.226S.23 10.448.23 23.057c0 12.61 10.344 22.832 23.103 22.832 12.76 0 23.104-10.222 23.104-22.832" id="Fill-1" fill="#439FD8" mask="url(#mask-2)"/></g><path d="M44.625 17.325L20.09 27.558c-.976.385-.796 1.8.25 1.974l12.693 2.113c.37.061.682.311.82.656l4.735 11.146c.39.976 1.828.856 2.006-.168l5.468-24.803c.14-.8-.676-1.452-1.438-1.151" id="Fill-4" fill="#F0F1F2"/><path d="M35 5.976c13.052 0 23.83 9.803 25.192 22.35a3.015 3.015 0 0 0 3.005 2.689c1.812 0 3.2-1.562 3.007-3.343C64.517 12.115 51.19 0 35 0S5.483 12.115 3.796 27.672a3.016 3.016 0 0 0 3.007 3.343 3.015 3.015 0 0 0 3.005-2.689C11.17 15.78 21.948 5.976 35 5.976" id="Fill-6" fill="#CFC7D5"/><path d="M12.144 23.67V52.8c0 .862-.895 1.437-1.698 1.097C4.303 51.291 0 45.26 0 38.235c0-7.026 4.303-13.057 10.446-15.663.803-.34 1.698.235 1.698 1.098" id="Fill-8" fill="#D9DCE0"/><path d="M10.446 53.897c.803.34 1.698-.235 1.698-1.098V38.235H0C0 45.26 4.303 51.29 10.446 53.897" id="Fill-10" fill="#CFC7D5"/><path d="M57.856 23.67V52.8c0 .862.895 1.437 1.698 1.097C65.697 51.291 70 45.26 70 38.235c0-7.026-4.303-13.057-10.446-15.663-.803-.34-1.698.235-1.698 1.098" id="Fill-12" fill="#D9DCE0"/><path d="M59.554 53.897c-.803.34-1.698-.235-1.698-1.098V38.235H70c0 7.025-4.303 13.056-10.446 15.662" id="Fill-14" fill="#CFC7D5"/><path d="M14.089 53.996a1.945 1.945 0 0 1-1.945-1.944V24.517a1.944 1.944 0 1 1 3.889 0v27.535c0 1.074-.87 1.944-1.944 1.944" id="Fill-16" fill="#7F8381"/><path d="M55.873 53.996a1.945 1.945 0 0 1-1.945-1.944V24.517a1.944 1.944 0 1 1 3.89 0v27.535c0 1.074-.871 1.944-1.945 1.944" id="Fill-18" fill="#7F8381"/><path d="M44.625 17.325L20.09 27.558c-.976.385-.797 1.8.25 1.974l12.693 2.113c.146.025.278.085.398.161l12.356-14.221a1.064 1.064 0 0 0-1.163-.26" id="Fill-20" fill="#FFF"/></g></g></g></g></g></svg>