<svg xmlns="http://www.w3.org/2000/svg" width="180" height="132" viewBox="0 0 180 132"><g fill="none"><path fill="#EE4" d="M18.027 37.009c-1.535-.078-3.033.553-4.163 1.754-1.131 1.2-1.802 2.871-1.864 4.644v53.192c.13 3.68 2.815 6.543 6 6.398 3.185.145 5.87-2.718 6-6.398V43.407c-.13-3.68-2.815-6.543-6-6.398h.027z"/><path fill="#FFC141" d="M24 63.487L12 58.38V43.407c.062-1.773.733-3.444 1.864-4.644 1.13-1.2 2.628-1.832 4.163-1.754H18c3.185-.145 5.87 2.718 6 6.398v20.08z"/><path fill="#48565E" d="M52.804 24.003h74.392c3.019 0 5.578 2.207 6.005 5.178l10.738 74.75a6.025 6.025 0 0 1-3.541 6.366l-47.935 21.186a6.096 6.096 0 0 1-4.926 0l-47.935-21.186a6.025 6.025 0 0 1-3.54-6.365l10.737-74.75c.427-2.972 2.986-5.18 6.005-5.18z"/><path fill="#354651" d="M139.303 70.562L96.583 88.63a16.966 16.966 0 0 1-13.345.009L41 70.655l5.958-41.474c.427-2.971 2.986-5.178 6.004-5.178h74.393c3.018 0 5.577 2.207 6.004 5.178l5.944 41.381z"/><path fill="#707B81" d="M176.85 41.578l-38.894 16.458-46.255 19.562a4.98 4.98 0 0 1-3.92 0l-45.095-19.2-39.544-16.83a5.293 5.293 0 0 1 .22-9.766L88.002.314a4.979 4.979 0 0 1 3.48 0l85.139 31.488a5.293 5.293 0 0 1 .23 9.776z"/><path fill="#EE4" d="M101.857 35.05c-.761-2.525-4.883-4.581-9.934-4.973-8.13-.63-15.03 2.814-13.775 6.878.56 1.83 2.9 3.407 6.07 4.29a20.29 20.29 0 0 0 3.898.681c2.56.21 5.136-.015 7.638-.669 4.222-1.173 6.91-3.558 6.103-6.208z"/></g></svg>