<svg xmlns="http://www.w3.org/2000/svg" width="132" height="180" viewBox="0 0 132 180"><g fill="none"><path fill="#ECE7D9" d="M12 12h108H12zm120 12v144c0 6.627-5.373 12-12 12H12c-6.627 0-12-5.373-12-12V24v24h132V24z"/><path fill="#439FD8" d="M12 12h108c6.627 0 12 5.373 12 12v24H0V24c0-6.627 5.373-12 12-12zm42 12a6 6 0 1 0 0 12h24a6 6 0 1 0 0-12H54zm12 0a6 6 0 1 0 0-12 6 6 0 0 0 0 12z"/><path fill="#FFF" d="M66.002 131h.003H66z"/><path fill="#48565E" d="M74 30H58c-2.233 0-4-1.517-4-3.429V3.43C54 1.517 55.767 0 58 0h16c2.233 0 4 1.517 4 3.429V26.57C78 28.483 76.233 30 74 30zm-8-6a6 6 0 1 0 0-12 6 6 0 0 0 0 12z"/><path fill="#A7B4BC" d="M30 138h72a6 6 0 0 1 0 12H30a6 6 0 0 1 0-12z"/><circle cx="66" cy="90" r="36" fill="#FFF"/><circle cx="66" cy="75" r="15" fill="#A7B4BC"/><path fill="#A7B4BC" d="M42 116.833A35.866 35.866 0 0 0 66 126c9.22 0 17.63-3.466 24-9.167V108c0-6.627-5.373-12-12-12H54c-6.627 0-12 5.373-12 12v8.833z"/></g></svg>