<svg xmlns="http://www.w3.org/2000/svg" width="168" height="180" viewBox="0 0 168 180"><g fill="none"><path fill="#C0C9CF" d="M93 126V6a6 6 0 0 0-6-6h-6a6 6 0 0 0-6 6v120h18z"/><path fill="#A7B4BC" d="M12 30h144v93.402c0 1.435-1.3 2.598-2.903 2.598H14.903C13.3 126 12 124.837 12 123.402V30z"/><rect width="168" height="18" y="12" fill="#48565E" rx="6"/><path fill="#8F9FA9" d="M12 30h144v6H12z"/><path fill="#D9DFE2" d="M6 120h156v6a6 6 0 0 1-6 6H12a6 6 0 0 1-6-6v-6z"/><path fill="#C0C9CF" d="M75 132h18v12H75z"/><path fill="#C0C9CF" d="M121.398 178.763c4.271 2.483 9.795 1.114 12.337-3.057 2.542-4.172 1.14-9.567-3.13-12.05l-42-24.42a9.184 9.184 0 0 0-9.207 0l-42 24.42c-4.271 2.483-5.673 7.878-3.13 12.05 2.542 4.171 8.066 5.54 12.337 3.057L84 157.021l37.397 21.742z"/><path fill="#8F9FA9" d="M75 132h18v6H75z"/><path fill="#FFF" d="M150 30v90H18V30z"/><path fill="#D9DFE2" d="M18 30h132v6H18z"/><rect width="36" height="54" x="24" y="60" fill="#439FD8" rx="3"/><rect width="36" height="42" x="66" y="72" fill="#EC5E5C" rx="3"/><rect width="36" height="66" x="108" y="48" fill="#A3D078" rx="3"/></g></svg>